<svg width="48" height="48" viewBox="0 0 48 48" fill="none" xmlns="http://www.w3.org/2000/svg">
<path d="M25.0462 45L13.7626 41.8676L11.248 13.6644H38.8782L36.361 41.8631L25.0462 45Z" fill="#264DE4"/>
<path d="M34.2064 40.0676L36.3575 15.9704H25.0635V42.6023L34.2064 40.0676Z" fill="#2965F1"/>
<path d="M17.0117 26.4306L17.3217 29.8896H25.0623V26.4306H17.0117Z" fill="#EBEBEB"/>
<path d="M16.3896 19.4295L16.7041 22.8885H25.0632V19.4295H16.3896Z" fill="#EBEBEB"/>
<path d="M25.0645 35.414L25.0494 35.418L21.1971 34.3778L20.9508 31.6191H17.4785L17.9631 37.0502L25.0486 39.0172L25.0645 39.0128V35.414Z" fill="#EBEBEB"/>
<path d="M17.751 6H21.9404V7.75195H19.5029V9.50391H21.9404V11.2559H17.751V6Z" fill="black"/>
<path d="M22.7783 6H26.9678V7.52344H24.5303V7.82813H26.9678V11.332H22.7783V9.73242H25.2158V9.42773H22.7783V6Z" fill="black"/>
<path d="M27.8057 6H31.9951V7.52344H29.5576V7.82813H31.9951V11.332H27.8057V9.73242H30.2432V9.42773H27.8057V6Z" fill="black"/>
<path d="M33.0902 26.4306L33.7147 19.4295H25.0498V22.8885H29.9239L29.6091 26.4306H25.0498V29.8895H29.3092L28.9077 34.3756L25.0498 35.4169V39.0155L32.1409 37.0502L32.193 36.4658L33.0058 27.3594L33.0902 26.4306Z" fill="white"/>
</svg>
