<svg width="229" height="229" viewBox="0 0 229 229" fill="none" xmlns="http://www.w3.org/2000/svg">
<g opacity="0.334336">
<path d="M115.923 73.7529C117.308 73.7529 118.432 74.8773 118.432 76.2621C118.432 77.6468 117.308 78.7712 115.923 78.7712C114.538 78.7712 113.414 77.6468 113.414 76.2621C113.414 74.8773 114.538 73.7529 115.923 73.7529Z" fill="#3D8BFD"/>
</g>
<g opacity="0.334336">
<path d="M115.923 122.566C117.308 122.566 118.432 123.69 118.432 125.075C118.432 126.46 117.308 127.584 115.923 127.584C114.538 127.584 113.414 126.46 113.414 125.075C113.414 123.69 114.538 122.566 115.923 122.566Z" fill="#3D8BFD"/>
</g>
<g opacity="0.334336">
<path d="M166.074 122.566C167.458 122.566 168.583 123.69 168.583 125.075C168.583 126.46 167.458 127.584 166.074 127.584C164.689 127.584 163.564 126.46 163.564 125.075C163.564 123.69 164.689 122.566 166.074 122.566Z" fill="#3D8BFD"/>
</g>
<g opacity="0.334336">
<path d="M166.074 72.4158C167.458 72.4158 168.583 73.5401 168.583 74.9249C168.583 76.3097 167.458 77.434 166.074 77.434C164.689 77.434 163.564 76.3097 163.564 74.9249C163.564 73.5401 164.689 72.4158 166.074 72.4158Z" fill="#3D8BFD"/>
</g>
<g opacity="0.334336">
<path d="M140.999 65.729C142.384 65.729 143.508 66.8533 143.508 68.2381C143.508 69.6229 142.384 70.7472 140.999 70.7472C139.615 70.7472 138.49 69.6229 138.49 68.2381C138.49 66.8533 139.615 65.729 140.999 65.729Z" fill="#3D8BFD"/>
</g>
<g opacity="0.334336">
<path d="M140.999 129.253C142.384 129.253 143.508 130.377 143.508 131.762C143.508 133.147 142.384 134.271 140.999 134.271C139.615 134.271 138.49 133.147 138.49 131.762C138.49 130.377 139.615 129.253 140.999 129.253Z" fill="#3D8BFD"/>
</g>
<g opacity="0.334336">
<path d="M172.761 97.4907C174.146 97.4907 175.27 98.6151 175.27 99.9998C175.27 101.385 174.146 102.509 172.761 102.509C171.376 102.509 170.252 101.385 170.252 99.9998C170.252 98.6151 171.376 97.4907 172.761 97.4907Z" fill="#3D8BFD"/>
</g>
<g opacity="0.334336">
<path d="M109.238 97.4907C110.622 97.4907 111.747 98.6151 111.747 99.9998C111.747 101.385 110.622 102.509 109.238 102.509C107.853 102.509 106.729 101.385 106.729 99.9998C106.729 98.6151 107.853 97.4907 109.238 97.4907Z" fill="#3D8BFD"/>
</g>
<path d="M227.302 121.826L213.819 100.451L221.805 76.4607C222.897 73.2015 221.54 69.602 218.565 67.8959L196.76 55.2382L192.768 30.2632C192.204 26.8521 189.341 24.3135 185.952 24.1616L160.795 23.1761L145.731 2.93798C143.66 0.172117 139.969 -0.736894 136.881 0.740823L114.173 11.5793L91.4639 0.701991C88.3761 -0.774585 84.6852 0.134426 82.6137 2.9003L67.5499 23.1384L42.4312 24.1239C39.0041 24.2758 36.1424 26.8144 35.6148 30.2255L31.6224 55.2005L9.81768 67.8582C6.84284 69.5643 5.48733 73.1638 6.57905 76.423L14.5637 100.413L1.11815 121.788C-0.727272 124.706 -0.237366 128.496 2.21101 130.922L20.3626 148.43L18.3288 173.633C18.065 177.081 20.2119 180.228 23.4882 181.212L47.6283 188.224L57.4572 211.531C58.8127 214.714 62.1644 216.533 65.5161 215.814L90.1461 210.734L109.578 226.765C110.896 227.826 112.515 228.395 114.134 228.395C115.754 228.395 117.373 227.826 118.692 226.765L138.124 210.734L162.754 215.814C166.105 216.533 169.495 214.714 170.813 211.531L180.643 188.224L204.782 181.212C208.058 180.265 210.242 177.081 209.941 173.633L207.908 148.43L226.059 130.922C228.659 128.534 229.11 124.745 227.302 121.826ZM166.256 86.9212L115.792 162.983C113.872 165.825 110.935 167.72 107.996 167.72C105.059 167.72 101.783 166.052 99.7112 163.968L62.692 126.108C60.1694 123.531 60.1694 119.325 62.692 116.747L71.8438 107.387C74.3664 104.847 78.4717 104.847 80.9944 107.387L105.097 132.02L144.827 72.0653C146.823 69.0333 150.891 68.275 153.828 70.3215L164.561 77.75C167.499 79.7964 168.252 83.927 166.256 86.9212Z" fill="#3D8BFD"/>
</svg>
