<svg width="48" height="48" viewBox="0 0 48 48" fill="none" xmlns="http://www.w3.org/2000/svg">
<path d="M27.4277 6H12.8569C11.4846 6 10.2852 7.19947 10.2852 8.57174V39.4283C10.2852 40.7991 11.4846 42 12.8569 42H35.1414C36.5123 42 37.7132 40.8005 37.7132 39.4283V16.2855L31.7129 12.0002L27.4277 6Z" fill="#673AB7"/>
<path d="M20.5704 32.5698H30.8559V30.8563H20.5704V32.5698ZM20.5704 21.4275V23.1411H30.8559V21.4275H20.5704ZM19.0268 22.2857C19.0268 22.9712 18.5127 23.6566 17.656 23.6566C16.7992 23.6566 16.2852 23.1425 16.2852 22.2857C16.2852 21.429 16.7992 20.9149 17.656 20.9149C18.5127 20.9149 19.0268 21.5989 19.0268 22.2857ZM19.0268 27.0851C19.0268 27.7705 18.5127 28.4559 17.656 28.4559C16.7992 28.4559 16.2852 27.9418 16.2852 27.0851C16.2852 26.2283 16.7992 25.7142 17.656 25.7142C18.5127 25.7142 19.0268 26.3997 19.0268 27.0851ZM19.0268 31.713C19.0268 32.3985 18.5127 33.0839 17.656 33.0839C16.7992 33.0839 16.2852 32.5698 16.2852 31.713C16.2852 30.8563 16.7992 30.3422 17.656 30.3422C18.5127 30.3422 19.0268 31.0276 19.0268 31.713ZM20.5704 28.2845H30.8559V26.5696H20.5704V28.2845Z" fill="#F1F1F1"/>
<path d="M28.1133 15.6001L37.7134 25.0288V16.2855L28.1133 15.6001Z" fill="url(#paint0_linear_284_3754)"/>
<path d="M27.4277 6V13.7138C27.4277 15.0846 28.6272 16.2855 29.9995 16.2855H37.7132L27.4277 6Z" fill="#B39DDB"/>
<path d="M12.8569 6C11.4846 6 10.2852 7.19947 10.2852 8.57174V8.74309C10.2852 7.37083 11.4846 6.17135 12.8569 6.17135H27.4277V6H12.8569Z" fill="white" fill-opacity="0.2"/>
<path d="M35.1414 41.8272H12.8569C11.4846 41.8272 10.2852 40.6278 10.2852 39.2555V39.4268C10.2852 40.7977 11.4846 41.9986 12.8569 41.9986H35.1414C36.5123 41.9986 37.7132 40.7991 37.7132 39.4268V39.2555C37.7132 40.6278 36.5123 41.8272 35.1414 41.8272Z" fill="#311B92" fill-opacity="0.2"/>
<path d="M29.9975 16.2855C28.6267 16.2855 27.4258 15.086 27.4258 13.7137V13.8851C27.4258 15.2559 28.6253 16.4568 29.9975 16.4568H37.7113V16.2855H29.9975Z" fill="#311B92" fill-opacity="0.1"/>
<path d="M27.4277 6H12.8569C11.4846 6 10.2852 7.19947 10.2852 8.57174V39.4283C10.2852 40.7991 11.4846 42 12.8569 42H35.1414C36.5123 42 37.7132 40.8005 37.7132 39.4283V16.2855L27.4277 6Z" fill="url(#paint1_radial_284_3754)"/>
<defs>
<linearGradient id="paint0_linear_284_3754" x1="32.9127" y1="16.3505" x2="32.9127" y2="25.0649" gradientUnits="userSpaceOnUse">
<stop stop-color="#311B92" stop-opacity="0.2"/>
<stop offset="1" stop-color="#311B92" stop-opacity="0.02"/>
</linearGradient>
<radialGradient id="paint1_radial_284_3754" cx="0" cy="0" r="1" gradientUnits="userSpaceOnUse" gradientTransform="translate(11.1529 6.96073) scale(353.788 353.785)">
<stop stop-color="white" stop-opacity="0.1"/>
<stop offset="1" stop-color="white" stop-opacity="0"/>
</radialGradient>
</defs>
</svg>
