<svg width="48" height="48" viewBox="0 0 48 48" fill="none" xmlns="http://www.w3.org/2000/svg">
<path d="M38.1696 11.8609L35.5879 40.7827L23.983 44L12.41 40.7873L9.83105 11.8609H38.1696Z" fill="#E44D26"/>
<path d="M24 41.5409L33.3773 38.9411L35.5836 14.2261H24V41.5409Z" fill="#F16529"/>
<path d="M24.0004 21.3215H18.9817L19.3059 24.9544H24.0004V28.5021H16.0614L15.1045 17.7738H24.0004V21.3215Z" fill="#EBEBEB"/>
<path d="M16.22 30.276H19.7813L20.0339 33.1055L23.985 34.1723L24.0005 34.1682V37.8593L23.9842 37.8638L16.717 35.8464L16.22 30.276Z" fill="#EBEBEB"/>
<path d="M14.2706 4H12.4678V9.39406H14.2707V7.58781H15.9199V9.39406H17.7228V4H15.9198V5.78125H14.2706V4Z" fill="black"/>
<path d="M18.5064 5.78875H20.0936L20.0937 9.39406H21.8967V5.78875H23.4846V4H18.5064V5.78875Z" fill="black"/>
<path d="M24.2746 4H26.1546L27.311 5.89531L28.4662 4H30.3468V9.39406H28.5514V6.72047L27.311 8.63836H27.28L26.0387 6.72047V9.39406H24.2746V4Z" fill="black"/>
<path d="M33.0475 4H31.2441V9.39406H35.5829V7.61109H33.0475V4Z" fill="black"/>
<path d="M23.9883 21.3215V17.7738H32.8753L32.5577 21.3215H23.9883Z" fill="white"/>
<path d="M28.3569 28.5021H23.9883V24.9545H32.2348L32.1483 25.9071L31.2613 35.8464L23.9883 37.8621V34.1712L27.9451 33.1032L28.3569 28.5021Z" fill="white"/>
</svg>
