<svg width="48" height="48" viewBox="0 0 48 48" fill="none" xmlns="http://www.w3.org/2000/svg">
<path d="M31.2754 6H16.7246C10.811 6 6 10.811 6 16.7246V31.2754C6 37.189 10.811 42 16.7246 42H31.2754C37.189 42 42 37.189 42 31.2754V16.7246C41.9999 10.811 37.1889 6 31.2754 6ZM38.3784 31.2754C38.3784 35.1982 35.1982 38.3784 31.2754 38.3784H16.7246C12.8018 38.3784 9.6216 35.1982 9.6216 31.2754V16.7246C9.6216 12.8017 12.8018 9.6216 16.7246 9.6216H31.2754C35.1982 9.6216 38.3784 12.8017 38.3784 16.7246V31.2754Z" fill="url(#paint0_linear_284_3825)"/>
<path d="M24.0003 14.6891C18.8663 14.6891 14.6895 18.8659 14.6895 23.9999C14.6895 29.1339 18.8663 33.3108 24.0003 33.3108C29.1344 33.3108 33.3112 29.1339 33.3112 23.9999C33.3112 18.8659 29.1344 14.6891 24.0003 14.6891ZM24.0003 29.6892C20.8582 29.6892 18.3111 27.1421 18.3111 24C18.3111 20.8578 20.8583 18.3107 24.0003 18.3107C27.1425 18.3107 29.6896 20.8578 29.6896 24C29.6896 27.142 27.1424 29.6892 24.0003 29.6892Z" fill="url(#paint1_linear_284_3825)"/>
<path d="M33.3287 16.9902C34.5609 16.9902 35.5598 15.9913 35.5598 14.7592C35.5598 13.527 34.5609 12.5281 33.3287 12.5281C32.0965 12.5281 31.0977 13.527 31.0977 14.7592C31.0977 15.9913 32.0965 16.9902 33.3287 16.9902Z" fill="url(#paint2_linear_284_3825)"/>
<defs>
<linearGradient id="paint0_linear_284_3825" x1="24" y1="41.8952" x2="24" y2="6.27962" gradientUnits="userSpaceOnUse">
<stop stop-color="#E09B3D"/>
<stop offset="0.3" stop-color="#C74C4D"/>
<stop offset="0.6" stop-color="#C21975"/>
<stop offset="1" stop-color="#7024C4"/>
</linearGradient>
<linearGradient id="paint1_linear_284_3825" x1="24.0003" y1="41.8952" x2="24.0003" y2="6.27959" gradientUnits="userSpaceOnUse">
<stop stop-color="#E09B3D"/>
<stop offset="0.3" stop-color="#C74C4D"/>
<stop offset="0.6" stop-color="#C21975"/>
<stop offset="1" stop-color="#7024C4"/>
</linearGradient>
<linearGradient id="paint2_linear_284_3825" x1="33.3287" y1="41.8953" x2="33.3287" y2="6.27975" gradientUnits="userSpaceOnUse">
<stop stop-color="#E09B3D"/>
<stop offset="0.3" stop-color="#C74C4D"/>
<stop offset="0.6" stop-color="#C21975"/>
<stop offset="1" stop-color="#7024C4"/>
</linearGradient>
</defs>
</svg>
