<svg width="48" height="48" viewBox="0 0 48 48" fill="none" xmlns="http://www.w3.org/2000/svg">
<path d="M41.465 14.1441C41.478 14.1921 41.4847 14.2416 41.4847 14.2913V22.0186C41.4847 22.2205 41.3767 22.407 41.2016 22.5074L34.7159 26.2415V33.6427C34.7159 33.8441 34.6089 34.03 34.4342 34.1315L20.8959 41.925C20.865 41.9426 20.8311 41.9538 20.7973 41.9658C20.7847 41.97 20.7727 41.9778 20.7593 41.9813C20.6647 42.0062 20.5652 42.0062 20.4706 41.9813C20.4551 41.9771 20.441 41.9686 20.4262 41.963C20.3952 41.9517 20.3628 41.9419 20.3332 41.925L6.79777 34.1315C6.62275 34.0309 6.51465 33.8445 6.51465 33.6427V10.4608C6.51465 10.4101 6.52169 10.3608 6.53437 10.3129C6.53859 10.2967 6.54845 10.2819 6.55409 10.2657C6.56465 10.2361 6.57451 10.2058 6.59001 10.1784C6.60057 10.1601 6.61606 10.1453 6.62874 10.1284C6.64494 10.1058 6.65973 10.0826 6.67874 10.0629C6.69494 10.0467 6.71607 10.0347 6.73438 10.0206C6.75481 10.0037 6.77312 9.9854 6.79636 9.97202H6.79706L13.5651 6.07527C13.7395 5.97491 13.9542 5.97491 14.1286 6.07527L20.8966 9.97202H20.8981C20.9206 9.9861 20.9396 10.0037 20.96 10.0199C20.9783 10.034 20.9988 10.0467 21.015 10.0622C21.0347 10.0826 21.0488 10.1058 21.0657 10.1284C21.0776 10.1453 21.0938 10.1601 21.1037 10.1784C21.1199 10.2065 21.1291 10.2361 21.1403 10.2657C21.146 10.2819 21.1558 10.2967 21.16 10.3136C21.173 10.3616 21.1796 10.4111 21.1798 10.4608V24.94L26.8196 21.6926V14.2906C26.8196 14.2413 26.8266 14.1913 26.8393 14.1441C26.8442 14.1272 26.8534 14.1125 26.859 14.0963C26.8703 14.0667 26.8802 14.0364 26.8957 14.0089C26.9062 13.9906 26.9217 13.9758 26.9337 13.9589C26.9506 13.9364 26.9647 13.9131 26.9844 13.8934C27.0006 13.8772 27.021 13.8653 27.0393 13.8512C27.0605 13.8343 27.0788 13.816 27.1013 13.8026H27.102L33.8708 9.90582C34.0452 9.80532 34.2599 9.80532 34.4342 9.90582L41.2023 13.8026C41.2262 13.8167 41.2446 13.8343 41.2657 13.8505C41.2833 13.8645 41.3037 13.8772 41.3199 13.8927C41.3396 13.9131 41.3537 13.9364 41.3706 13.9589C41.3833 13.9758 41.3988 13.9906 41.4086 14.0089C41.4248 14.0364 41.434 14.0667 41.4453 14.0963C41.4516 14.1125 41.4608 14.1272 41.465 14.1441ZM40.3565 21.6926V15.2668L37.988 16.6302L34.7159 18.5142V24.94L40.3572 21.6926H40.3565ZM33.5884 33.3166V26.8866L30.3698 28.7247L21.1791 33.9702V40.4608L33.5884 33.3166ZM7.6429 11.4362V33.3166L20.0508 40.4601V33.9709L13.5687 30.3023L13.5666 30.3009L13.5637 30.2995C13.5419 30.2868 13.5236 30.2685 13.5032 30.253C13.4856 30.2389 13.4651 30.2277 13.4496 30.2122L13.4482 30.2101C13.4299 30.1925 13.4172 30.1706 13.4018 30.1509C13.3877 30.1319 13.3708 30.1157 13.3595 30.096L13.3588 30.0939C13.3461 30.0727 13.3384 30.0474 13.3292 30.0234C13.3201 30.0023 13.3081 29.9826 13.3024 29.96V29.9593C13.2954 29.9326 13.294 29.9044 13.2912 29.8769C13.2884 29.8558 13.2827 29.8347 13.2827 29.8136V29.8121V14.6836L10.0114 12.799L7.6429 11.4369V11.4362ZM13.8476 7.21478L8.20843 10.4608L13.8461 13.7068L19.4846 10.4601L13.8461 7.21478H13.8476ZM16.7802 27.4725L20.0515 25.5893V11.4362L17.683 12.7997L14.411 14.6836V28.8367L16.7802 27.4725ZM34.1525 11.0453L28.5141 14.2913L34.1525 17.5373L39.7902 14.2906L34.1525 11.0453ZM33.5884 18.5142L30.3163 16.6302L27.9478 15.2668V21.6926L31.2192 23.5758L33.5884 24.94V18.5142ZM20.6142 32.9948L28.8845 28.2733L33.0186 25.914L27.3844 22.6701L20.8973 26.4049L14.985 29.8086L20.6142 32.9948Z" fill="#FF2D20"/>
</svg>
