<svg width="48" height="48" viewBox="0 0 48 48" fill="none" xmlns="http://www.w3.org/2000/svg">
<path d="M15.1699 6.78381L31.7354 16.3551L30.3655 18.7168L13.8 9.14553L15.3133 8.44324L15.1699 6.78381Z" fill="#0D6EFD"/>
<path d="M28.6851 16.1608L32.1088 10.2494L34.4685 11.622L31.0448 17.5334L30.0361 16.5515L28.6851 16.1608Z" fill="#0D6EFD"/>
<path d="M20.271 3.4165L29.7343 8.88944L28.3632 11.2498L18.8999 5.77684L19.5854 4.59667L20.271 3.4165Z" fill="#0D6EFD"/>
<path d="M15.3157 8.45522C14.669 9.56838 13.2422 9.94651 12.1289 9.2997C11.0156 8.65288 10.6374 7.22612 11.284 6.11296C11.9307 4.9998 13.3575 4.62166 14.4708 5.26848C15.5841 5.91529 15.9623 7.34206 15.3157 8.45522Z" stroke="#0D6EFD" stroke-width="0.8"/>
<path d="M31.0664 41.2163L14.5009 31.645L15.8708 29.2833L32.4363 38.8546L30.9231 39.5569L31.0664 41.2163Z" fill="#0D6EFD"/>
<path d="M17.5513 31.8394L14.1276 37.7508L11.7679 36.3782L15.1916 30.4667L16.2002 31.4486L17.5513 31.8394Z" fill="#0D6EFD"/>
<path d="M25.9653 44.5836L16.502 39.1107L17.8732 36.7503L27.3365 42.2233L26.6509 43.4034L25.9653 44.5836Z" fill="#0D6EFD"/>
<path d="M30.9207 39.5449C31.5674 38.4317 32.9941 38.0536 34.1074 38.7004C35.2208 39.3472 35.599 40.774 34.9523 41.8872C34.3056 43.0003 32.8789 43.3785 31.7655 42.7316C30.6522 42.0848 30.274 40.6581 30.9207 39.5449Z" stroke="#0D6EFD" stroke-width="0.8"/>
<path d="M6.78369 32.4325L16.3552 15.8676L18.7167 17.2381L9.14512 33.803L8.44298 32.2895L6.78369 32.4325Z" fill="#0D6EFD"/>
<path d="M16.1611 18.9177L10.2491 15.4942L11.6212 13.1343L17.5331 16.5579L16.5515 17.5666L16.1611 18.9177Z" fill="#0D6EFD"/>
<path d="M3.4165 27.3309L8.88968 17.8683L11.2498 19.2401L5.77658 28.7027L4.59654 28.0168L3.4165 27.3309Z" fill="#0D6EFD"/>
<path d="M8.45478 32.2875C9.56811 32.9343 9.94632 34.361 9.29964 35.4742C8.65296 36.5874 7.22622 36.9655 6.11289 36.3187C4.99956 35.6719 4.62136 34.2451 5.26803 33.1319C5.91471 32.0188 7.34145 31.6406 8.45478 32.2875Z" stroke="#0D6EFD" stroke-width="0.8"/>
<path d="M41.2163 16.5367L31.6448 33.1017L29.2833 31.7312L38.8549 15.1663L39.557 16.6797L41.2163 16.5367Z" fill="#0D6EFD"/>
<path d="M31.8389 30.0515L37.7509 33.4751L36.3788 35.8349L30.4669 32.4114L31.4485 31.4026L31.8389 30.0515Z" fill="#0D6EFD"/>
<path d="M44.5835 21.6383L39.1103 31.101L36.7502 29.7292L42.2234 20.2665L43.4035 20.9524L44.5835 21.6383Z" fill="#0D6EFD"/>
<path d="M39.5452 16.6818C38.4319 16.035 38.0537 14.6082 38.7004 13.495C39.347 12.3819 40.7738 12.0037 41.8871 12.6506C43.0004 13.2974 43.3786 14.7241 42.732 15.8373C42.0853 16.9505 40.6585 17.3286 39.5452 16.6818Z" stroke="#0D6EFD" stroke-width="0.8"/>
<path d="M26.8314 23.9151C26.8314 25.5258 25.5257 26.8315 23.915 26.8315C22.3043 26.8315 20.9985 25.5258 20.9985 23.9151C20.9985 22.3044 22.3043 20.9987 23.915 20.9987C25.5257 20.9987 26.8314 22.3044 26.8314 23.9151Z" stroke="#0D6EFD"/>
</svg>
