<svg width="53" height="54" viewBox="0 0 53 54" fill="none" xmlns="http://www.w3.org/2000/svg">
<path d="M16.6475 8.10278L34.834 18.6028L33.334 21.2009L15.1475 10.7009L16.8068 9.92682L16.6475 8.10278Z" fill="#F8F9FA"/>
<path d="M31.4854 18.4019L35.2354 11.9067L37.8334 13.4067L34.0834 19.9019L32.9719 18.8271L31.4854 18.4019Z" fill="#F8F9FA"/>
<path d="M22.2451 4.40674L32.6374 10.4067L31.1374 13.0048L20.7451 7.00481L21.4951 5.70578L22.2451 4.40674Z" fill="#F8F9FA"/>
<circle cx="14.5981" cy="8.65179" r="2.4" transform="rotate(30 14.5981 8.65179)" stroke="#F8F9FA" stroke-width="1.2"/>
<path d="M34.1025 45.897L15.916 35.397L17.416 32.7989L35.6025 43.2989L33.9432 44.0729L34.1025 45.897Z" fill="#F8F9FA"/>
<path d="M19.2646 35.5979L15.5146 42.0931L12.9166 40.5931L16.6666 34.0979L17.7781 35.1727L19.2646 35.5979Z" fill="#F8F9FA"/>
<path d="M28.5049 49.5933L18.1126 43.5933L19.6126 40.9952L30.0049 46.9952L29.2549 48.2942L28.5049 49.5933Z" fill="#F8F9FA"/>
<circle cx="36.1519" cy="45.348" r="2.4" transform="rotate(-150 36.1519 45.348)" stroke="#F8F9FA" stroke-width="1.2"/>
<path d="M7.44629 36.2603L17.9463 18.0737L20.5444 19.5737L10.0444 37.7603L9.27033 36.1009L7.44629 36.2603Z" fill="#F8F9FA"/>
<path d="M17.7451 21.4216L11.2499 17.6716L12.7499 15.0736L19.2451 18.8236L18.1704 19.9351L17.7451 21.4216Z" fill="#F8F9FA"/>
<path d="M3.75 30.6621L9.75 20.2698L12.3481 21.7698L6.34808 32.1621L5.04904 31.4121L3.75 30.6621Z" fill="#F8F9FA"/>
<circle cx="7.99554" cy="38.3092" r="2.4" transform="rotate(-60 7.99554 38.3092)" stroke="#F8F9FA" stroke-width="1.2"/>
<path d="M45.2402 18.8037L34.7402 36.9902L32.1422 35.4902L42.6422 17.3037L43.4162 18.963L45.2402 18.8037Z" fill="#F8F9FA"/>
<path d="M34.9414 33.6423L41.4366 37.3923L39.9366 39.9904L33.4414 36.2404L34.5162 35.1289L34.9414 33.6423Z" fill="#F8F9FA"/>
<path d="M48.9365 24.4019L42.9365 34.7942L40.3384 33.2942L46.3384 22.9019L47.6375 23.6519L48.9365 24.4019Z" fill="#F8F9FA"/>
<circle cx="44.691" cy="16.7548" r="2.4" transform="rotate(120 44.691 16.7548)" stroke="#F8F9FA" stroke-width="1.2"/>
<circle cx="26.25" cy="26.9067" r="3" stroke="#F8F9FA" stroke-width="1.5"/>
</svg>
