<svg width="1050" height="1050" viewBox="0 0 1050 1050" fill="none" xmlns="http://www.w3.org/2000/svg">
<path d="M359.431 202.197L670.034 381.658L644.349 425.94L333.746 246.479L362.118 233.311L359.431 202.197Z" fill="#F8F9FA"/>
<path d="M612.841 378.013L677.035 267.175L721.28 292.911L657.085 403.75L638.173 385.34L612.841 378.013Z" fill="#F8F9FA"/>
<path d="M455.082 139.058L632.519 241.676L606.81 285.932L429.373 183.315L442.228 161.187L455.082 139.058Z" fill="#F8F9FA"/>
<path d="M360.866 232.78C349.157 252.936 323.324 259.783 303.165 248.071C283.007 236.359 276.159 210.526 287.868 190.37C299.577 170.215 325.41 163.368 345.569 175.08C365.728 186.791 372.575 212.625 360.866 232.78Z" stroke="#F8F9FA" stroke-width="18"/>
<path d="M657.494 847.803L346.891 668.342L372.576 624.06L683.179 803.521L654.807 816.689L657.494 847.803Z" fill="#F8F9FA"/>
<path d="M404.085 671.987L339.891 782.826L295.646 757.089L359.841 646.25L378.753 664.661L404.085 671.987Z" fill="#F8F9FA"/>
<path d="M561.843 910.942L384.406 808.324L410.115 764.068L587.552 866.685L574.697 888.813L561.843 910.942Z" fill="#F8F9FA"/>
<path d="M656.058 817.22C667.767 797.064 693.601 790.217 713.759 801.929C733.918 813.641 740.766 839.474 729.057 859.63C717.348 879.785 691.515 886.632 671.356 874.92C651.197 863.209 644.349 837.375 656.058 817.22Z" stroke="#F8F9FA" stroke-width="18"/>
<path d="M202.196 683.109L381.663 372.517L425.94 398.213L246.473 708.806L233.308 680.428L202.196 683.109Z" fill="#F8F9FA"/>
<path d="M378.024 429.709L267.175 365.517L292.9 321.27L403.75 385.462L385.345 404.376L378.024 429.709Z" fill="#F8F9FA"/>
<path d="M139.058 587.457L241.68 410.032L285.931 435.753L183.309 613.178L161.183 600.318L139.058 587.457Z" fill="#F8F9FA"/>
<path d="M232.777 681.689C252.936 693.4 259.784 719.234 248.075 739.389C236.366 759.545 210.532 766.392 190.373 754.68C170.215 742.968 163.367 717.135 175.076 696.979C186.785 676.824 212.618 669.977 232.777 681.689Z" stroke="#F8F9FA" stroke-width="18"/>
<path d="M847.803 385.066L668.336 695.658L624.059 669.962L803.526 359.37L816.691 387.747L847.803 385.066Z" fill="#F8F9FA"/>
<path d="M671.975 638.466L782.824 702.658L757.099 746.905L646.249 682.713L664.655 663.799L671.975 638.466Z" fill="#F8F9FA"/>
<path d="M910.94 480.719L808.318 658.143L764.067 632.422L866.689 454.997L888.815 467.858L910.94 480.719Z" fill="#F8F9FA"/>
<path d="M817.222 386.486C797.063 374.775 790.216 348.941 801.925 328.786C813.633 308.63 839.467 301.783 859.626 313.495C879.784 325.207 886.632 351.041 874.923 371.196C863.214 391.351 837.381 398.198 817.222 386.486Z" stroke="#F8F9FA" stroke-width="18"/>
<path d="M578.465 523.407C578.465 553.815 553.814 578.465 523.407 578.465C492.999 578.465 468.349 553.815 468.349 523.407C468.349 492.999 492.999 468.349 523.407 468.349C553.814 468.349 578.465 492.999 578.465 523.407Z" stroke="#F8F9FA" stroke-width="18"/>
</svg>
