<svg width="48" height="48" viewBox="0 0 48 48" fill="none" xmlns="http://www.w3.org/2000/svg">
<path d="M24 37.2375C37.2548 37.2375 48 31.5879 48 24.6187C48 17.6496 37.2548 12 24 12C10.7452 12 0 17.6496 0 24.6187C0 31.5879 10.7452 37.2375 24 37.2375Z" fill="url(#paint0_radial_565_3621)"/>
<path d="M24 36.3C36.7371 36.3 47.0625 31.0701 47.0625 24.6187C47.0625 18.1674 36.7371 12.9375 24 12.9375C11.2629 12.9375 0.9375 18.1674 0.9375 24.6187C0.9375 31.0701 11.2629 36.3 24 36.3Z" fill="#6181B6"/>
<path fill-rule="evenodd" clip-rule="evenodd" d="M29.8114 22.5187L28.6677 28.4062C28.6302 28.575 28.4802 28.7062 28.3114 28.7625H25.4989C25.3864 28.7625 25.2927 28.725 25.2177 28.6312C25.1427 28.5375 25.124 28.425 25.1427 28.3125L26.2302 22.7062C26.3614 22.0125 26.2489 21.7875 26.1927 21.7312C26.1177 21.6562 25.8927 21.5062 25.0865 21.5062H23.2115L21.8614 28.4437C21.8239 28.6125 21.6739 28.7437 21.4864 28.7437H18.749C18.6365 28.7437 18.5427 28.7062 18.4677 28.6125C18.3927 28.5187 18.374 28.4062 18.3927 28.2937L18.8802 25.7625C18.5802 26.2875 18.1865 26.775 17.7177 27.2062C17.1365 27.75 16.4802 28.1437 15.749 28.3875C15.0552 28.6125 14.1364 28.725 13.0677 28.725H11.024L10.4239 31.7812C10.3864 31.95 10.2364 32.0812 10.0489 32.0812H7.2927C7.1802 32.0812 7.08645 32.0437 7.01145 31.95C6.93645 31.8562 6.9177 31.7437 6.93645 31.6312L9.3927 18.9562C9.4302 18.7875 9.5802 18.6562 9.7677 18.6562H15.0364C16.7427 18.6562 17.999 19.125 18.8052 20.0437C19.2552 20.5312 19.5177 21.1312 19.6302 21.8437L20.8489 15.6C20.8864 15.4312 21.0364 15.3 21.2239 15.3H23.9615C24.0739 15.3 24.1677 15.3375 24.2427 15.4312C24.3177 15.525 24.3364 15.6375 24.3177 15.75L23.7552 18.675H25.7427C27.3927 18.675 28.5177 18.975 29.174 19.575C29.849 20.1937 30.0739 21.1875 29.8114 22.5187ZM15.0364 25.4062C15.5052 25.05 15.824 24.4125 15.9927 23.5312C16.1427 22.7437 16.0865 22.1625 15.8427 21.8625C15.6552 21.6562 15.1865 21.4125 14.024 21.4125H12.449L11.5677 25.95H12.7864C13.7989 25.95 14.5677 25.7625 15.0364 25.4062Z" fill="white"/>
<path fill-rule="evenodd" clip-rule="evenodd" d="M36.599 18.6562C38.3052 18.6562 39.5615 19.125 40.3677 20.0437C41.174 20.9812 41.4177 22.2562 41.099 23.8875C40.9677 24.5437 40.7427 25.1437 40.4427 25.6875C40.1427 26.2312 39.7302 26.7375 39.2427 27.1875C38.6615 27.7312 38.0052 28.125 37.274 28.3687C36.5802 28.5937 35.6615 28.7062 34.5927 28.7062H32.549L31.949 31.7625C31.9115 31.9312 31.7615 32.0625 31.574 32.0625H28.8177C28.7052 32.0625 28.6115 32.025 28.5365 31.9312C28.4615 31.8375 28.4427 31.725 28.4615 31.6125L30.9177 18.9562C30.9552 18.7875 31.1052 18.6562 31.2927 18.6562H36.599ZM36.5427 25.4062C37.0115 25.05 37.3302 24.4125 37.499 23.5312C37.6677 22.7437 37.6115 22.1625 37.349 21.8625C37.1615 21.6562 36.6927 21.4125 35.5302 21.4125H33.9552L33.074 25.95H34.2927C35.3052 25.95 36.074 25.7625 36.5427 25.4062Z" fill="white"/>
<path d="M21.2437 15.675H23.9812L23.325 19.0312H25.7625C27.3 19.0312 28.35 19.2937 28.9312 19.8375C29.5125 20.3812 29.6812 21.2437 29.4562 22.4437L28.3125 28.3312H25.5375L26.625 22.725C26.7562 22.0875 26.7 21.6562 26.4937 21.4312C26.2875 21.2062 25.8187 21.075 25.125 21.075H22.9312L21.525 28.3312H18.7875L21.2437 15.675Z" fill="#000004"/>
<path fill-rule="evenodd" clip-rule="evenodd" d="M7.3125 31.6875H10.0688L10.725 28.3312H13.0875C14.1375 28.3312 14.9813 28.2187 15.6562 27.9937C16.3312 27.7687 16.9313 27.4125 17.4938 26.8875C17.9625 26.4562 18.3375 25.9875 18.6188 25.4812C18.9 24.975 19.1063 24.4125 19.2188 23.7937C19.5187 22.2937 19.2938 21.1312 18.5625 20.2875C17.8312 19.4437 16.6688 19.0312 15.075 19.0312H9.76875L7.3125 31.6875ZM14.025 21.0375C15.075 21.0375 15.7687 21.225 16.125 21.6187C16.4813 22.0125 16.5563 22.6687 16.3688 23.6062C16.1813 24.5812 15.8063 25.2937 15.2625 25.7062C14.7188 26.1187 13.8937 26.325 12.7875 26.325H11.1187L12.15 21.0375H14.025Z" fill="#000004"/>
<path fill-rule="evenodd" clip-rule="evenodd" d="M31.575 31.6875H28.8187L31.275 19.0312H36.5812C38.175 19.0312 39.3375 19.4437 40.0687 20.2875C40.8 21.1312 41.025 22.2937 40.725 23.7937C40.6125 24.4125 40.4062 24.975 40.125 25.4812C39.8437 25.9875 39.4687 26.4562 39 26.8875C38.4375 27.4125 37.8375 27.7687 37.1625 27.9937C36.4875 28.2187 35.6437 28.3312 34.5937 28.3312H32.2312L31.575 31.6875ZM37.6312 21.6187C37.275 21.225 36.5812 21.0375 35.5312 21.0375H33.6562L32.625 26.325H34.2937C35.4 26.325 36.225 26.1187 36.7687 25.7062C37.3125 25.2937 37.6875 24.5812 37.875 23.6062C38.0625 22.6687 37.9875 22.0125 37.6312 21.6187Z" fill="#000004"/>
<defs>
<radialGradient id="paint0_radial_565_3621" cx="0" cy="0" r="1" gradientUnits="userSpaceOnUse" gradientTransform="translate(14.4097 16.4377) scale(31.5178 31.5178)">
<stop stop-color="white"/>
<stop offset="0.5" stop-color="#4C6B97"/>
<stop offset="1" stop-color="#231F20"/>
</radialGradient>
</defs>
</svg>
